<svg xmlns="http://www.w3.org/2000/svg" viewBox="0 0 100 100" width="100" height="100">
  <defs>
    <linearGradient id="bg" x1="0%" y1="0%" x2="100%" y2="100%">
      <stop offset="0%" stop-color="#86efac"/>
      <stop offset="100%" stop-color="#16a34a"/>
    </linearGradient>
    <linearGradient id="leaf1" x1="0%" y1="0%" x2="100%" y2="100%">
      <stop offset="0%" stop-color="#ffffff" stop-opacity="0.95"/>
      <stop offset="100%" stop-color="#dcfce7" stop-opacity="0.85"/>
    </linearGradient>
  </defs>

  <!-- 배경 둥근 사각형 -->
  <rect width="100" height="100" rx="24" fill="url(#bg)"/>

  <!-- 땅 -->
  <ellipse cx="50" cy="80" rx="22" ry="5" fill="#15803d" opacity="0.4"/>

  <!-- 줄기 -->
  <path d="M50 78 Q50 62 50 50" stroke="white" stroke-width="4.5" stroke-linecap="round" fill="none"/>

  <!-- 왼쪽 잎 -->
  <path d="M50 62 C44 56 30 54 28 42 C38 40 50 52 50 62Z" fill="url(#leaf1)"/>

  <!-- 오른쪽 잎 -->
  <path d="M50 55 C56 49 70 47 72 35 C62 33 50 45 50 55Z" fill="url(#leaf1)"/>

  <!-- 새싹 끝 -->
  <path d="M50 50 C47 44 47 36 50 30 C53 36 53 44 50 50Z" fill="white" opacity="0.95"/>

  <!-- 반짝이 -->
  <circle cx="33" cy="28" r="2.5" fill="white" opacity="0.6"/>
  <circle cx="68" cy="22" r="1.8" fill="white" opacity="0.5"/>
  <circle cx="75" cy="55" r="1.5" fill="white" opacity="0.4"/>
</svg>
